<svg id="Layer_1" data-name="Layer 1" xmlns="http://www.w3.org/2000/svg" viewBox="0 0 960 200"><defs><style>.cls-1{fill:#09f;}</style></defs><title>logo</title><path class="cls-1" d="M427.31,124.18a45.57,45.57,0,0,1,32.44,13.42l.44.44,8.81-8.81-.43-.44a57.44,57.44,0,0,0-41.26-17.19,58.37,58.37,0,1,0,41.26,99.71l.44-.44-8.81-9-.44.44a45.78,45.78,0,1,1-32.44-78.15Z" transform="translate(-115.78 -82.43)"/><path class="cls-1" d="M534.75,158.36a32,32,0,0,0-20.27-6.76c-20.18,0-37.23,17.57-37.23,38.36,0,21.16,16.7,38.37,37.23,38.37a32,32,0,0,0,20.27-6.77v4.5h11.77v-72.2H534.75Zm-37.89,12.85a26.39,26.39,0,0,1,18.76-7.84,27.16,27.16,0,0,1,19.14,8.22v36.58a26.47,26.47,0,1,1-37.89-37Z" transform="translate(-115.78 -82.43)"/><path class="cls-1" d="M578.13,158.72v-4.85H566.35v72.2h11.77V173.42c2.7-5.73,9.58-10,16.06-10h1.11V151.6h-.62A22.08,22.08,0,0,0,578.13,158.72Z" transform="translate(-115.78 -82.43)"/><path class="cls-1" d="M638.9,151.6a38.37,38.37,0,0,0,0,76.73,38,38,0,0,0,27-11.2l.44-.44L658,208.37l-.44.43a26.56,26.56,0,0,1-44.83-13.67H677l.06-.56a43.27,43.27,0,0,0,.16-4.62C676.62,168.09,660.13,151.6,638.9,151.6ZM612.76,185A26.63,26.63,0,0,1,665,185Z" transform="translate(-115.78 -82.43)"/><path class="cls-1" d="M716.35,113.86H698.71V226.07H711V191.89h5.37a39,39,0,0,0,0-78Zm26.75,39a26.78,26.78,0,0,1-26.75,26.75H711v-53.5h5.37A26.78,26.78,0,0,1,743.1,152.87Z" transform="translate(-115.78 -82.43)"/><path class="cls-1" d="M800.58,151.6A38.37,38.37,0,1,0,838.95,190,38.4,38.4,0,0,0,800.58,151.6ZM827.18,190a26.76,26.76,0,1,1-7.84-18.75A26.39,26.39,0,0,1,827.18,190Z" transform="translate(-115.78 -82.43)"/><polygon class="cls-1" points="757.71 118.61 739.35 71.44 726.5 71.44 751.53 133.94 736.35 170.83 749.2 170.83 788.42 72.3 788.76 71.44 775.92 71.44 757.71 118.61"/><path class="cls-1" d="M941.86,151.6a22.59,22.59,0,0,0-16.55,7v-4.76H913.54v72.2h11.78V171.81a15.58,15.58,0,0,1,14-8.43c7.71,0,12.5,5.28,12.5,13.79v48.9h11.78V175.88C963.54,161.59,954.63,151.6,941.86,151.6Z" transform="translate(-115.78 -82.43)"/><polygon class="cls-1" points="882.11 71.44 882.11 41.9 870.17 47.87 870.17 71.44 859.49 71.44 859.49 83.22 870.17 83.22 870.17 143.64 882.11 143.64 882.11 83.22 894.75 83.22 894.75 71.44 882.11 71.44"/><path class="cls-1" d="M237.24,199.47a24.12,24.12,0,1,1,0-34.09l1.75,1.75,8-8-1.72-1.75a35,35,0,0,0-25.16-10.48,35.57,35.57,0,1,0,25.14,60.75l1.73-1.74-8-8.17Z" transform="translate(-115.78 -82.43)"/><polygon class="cls-1" points="943.41 100.19 918.72 125 927.01 133.33 960 100.19 926.63 66.67 918.33 75 943.41 100.19"/><polygon class="cls-1" points="182.13 100 155.53 126.6 164.47 135.53 200 100 164.05 64.05 155.12 72.99 182.13 100"/><polygon class="cls-1" points="100 182.13 72.99 155.12 64.05 164.05 100 200 135.44 164.56 126.5 155.63 100 182.13"/><polygon class="cls-1" points="17.87 100 44.37 73.5 35.44 64.56 0 100 35.03 135.03 43.96 126.09 17.87 100"/><polygon class="cls-1" points="100 17.87 126.09 43.96 135.03 35.03 100 0 64.47 35.53 73.4 44.47 100 17.87"/></svg>