<?xml version="1.0" standalone="no"?>
<!DOCTYPE svg PUBLIC "-//W3C//DTD SVG 20010904//EN"
 "http://www.w3.org/TR/2001/REC-SVG-20010904/DTD/svg10.dtd">
<svg version="1.0" xmlns="http://www.w3.org/2000/svg"
 width="76.000000pt" height="76.000000pt" viewBox="0 0 76.000000 76.000000"
 preserveAspectRatio="xMidYMid meet">
<metadata>
Created by potrace 1.11, written by Peter Selinger 2001-2013
</metadata>
<g transform="translate(0.000000,76.000000) scale(0.100000,-0.100000)"
fill="#000000" stroke="none">
<path d="M322 687 c-29 -29 -52 -58 -52 -65 0 -22 25 -12 60 23 19 19 40 35
46 35 5 0 25 -16 44 -35 34 -35 60 -45 60 -22 -1 15 -14 31 -66 79 l-40 38
-52 -53z"/>
<path d="M335 540 c-68 -21 -124 -108 -111 -172 15 -75 86 -137 159 -138 45 0
97 26 97 49 0 25 -7 26 -49 5 -43 -21 -96 -11 -133 26 -54 54 -32 157 40 187
39 16 102 8 102 -13 0 -18 44 -39 65 -30 11 4 15 15 13 33 -2 21 -9 29 -28 31
-14 2 -30 8 -35 13 -17 13 -87 19 -120 9z"/>
<path d="M75 440 l-49 -50 49 -50 c27 -27 55 -50 62 -50 24 0 13 26 -22 56
-19 16 -35 34 -35 41 0 7 16 27 35 46 19 19 35 39 35 46 0 23 -27 9 -75 -39z"/>
<path d="M270 157 c0 -15 91 -107 106 -107 14 0 104 93 104 108 0 22 -26 12
-60 -23 -19 -19 -39 -35 -45 -35 -6 0 -26 16 -45 35 -35 36 -60 45 -60 22z"/>
</g>
</svg>
